HIERARCHY
ROOT pelvis
{
	OFFSET 0.000000 0.000000 0.000000
	CHANNELS 6 Xposition Yposition Zposition Zrotation Xrotation Yrotation
	JOINT lfemur
	{
		OFFSET 11.446000 0.000000 0.000000
		CHANNELS 3 Zrotation Xrotation Yrotation
		JOINT ltibia
		{
			OFFSET 0.000000 -42.030400 0.000000
			CHANNELS 3 Zrotation Xrotation Yrotation
			JOINT lfoot
			{
				OFFSET 0.000000 -39.930200 0.000000
				CHANNELS 3 Zrotation Xrotation Yrotation
				JOINT ltoes
				{
					OFFSET 0.000000 0.000000 11.775800
					CHANNELS 3 Zrotation Xrotation Yrotation
					End Site
					{
					    OFFSET 0.000000 0.000000 5.000000
					}
				}
			}
		}
	}
	JOINT rfemur
	{
		OFFSET -11.446000 0.000000 0.000000
		CHANNELS 3 Zrotation Xrotation Yrotation
		JOINT rtibia
		{
			OFFSET 0.000000 -42.030400 0.000000
			CHANNELS 3 Zrotation Xrotation Yrotation
			JOINT rfoot
			{
				OFFSET 0.000000 -39.930200 0.000000
				CHANNELS 3 Zrotation Xrotation Yrotation
				JOINT rtoes
				{
					OFFSET 0.000000 0.000000 11.775800
					CHANNELS 3 Zrotation Xrotation Yrotation
					End Site
					{
					    OFFSET 0.000000 0.000000 5.000000
					}
				}
			}
		}
	}
	JOINT thorax
	{
		OFFSET 0.000000 11.255600 -5.000000
		CHANNELS 3 Zrotation Xrotation Yrotation
		JOINT head
		{
			OFFSET 0.000000 43.799300 0.000000
			CHANNELS 3 Zrotation Xrotation Yrotation
			End Site
			{
			    OFFSET 0.000000 5.000000 0.000000
			}
		}
		JOINT lclavicle
		{
			OFFSET 0.000000 39.863000 0.000000
			CHANNELS 3 Zrotation Xrotation Yrotation
			JOINT lhumerus
			{
				OFFSET 17.380600 4.958300 0.000000
				CHANNELS 3 Zrotation Xrotation Yrotation
				JOINT lradius
				{
					OFFSET 0.000000 -27.561300 0.000000
					CHANNELS 3 Zrotation Xrotation Yrotation
					JOINT lhand
					{
						OFFSET 0.000000 -26.933000 0.000000
						CHANNELS 3 Zrotation Xrotation Yrotation
						End Site
						{
						    OFFSET 0.000000 -5.000000 0.000000
						}
					}
				}
			}
		}
		JOINT rclavicle
		{
			OFFSET 0.000000 39.863000 0.000000
			CHANNELS 3 Zrotation Xrotation Yrotation
			JOINT rhumerus
			{
				OFFSET -17.380600 4.958300 0.000000
				CHANNELS 3 Zrotation Xrotation Yrotation
				JOINT rradius
				{
					OFFSET 0.000000 -27.561300 0.000000
					CHANNELS 3 Zrotation Xrotation Yrotation
					JOINT rhand
					{
						OFFSET 0.000000 -26.933000 0.000000
						CHANNELS 3 Zrotation Xrotation Yrotation
						End Site
						{
						    OFFSET 0.000000 -5.000000 0.000000
						}
					}
				}
			}
		}
	}
}
MOTION
Frames:	9
Frame Time:	0.0333333
-221.71 87.202 -88.5172 1.17057 -0.673659 116.458 -5.13912 -6.99505 -3.95146 2.67121 24.8156 6.99874 8.0278 -4.7391 0.543032 -5.16876e-016 -5 3.1927e-015 4.78058 -18.7943 10.0553 -1.74523 21.7634 0.285549 5.15583 6.3923 -0.345895 2.38433e-016 -5 9.57811e-015 -7.05562 7.4791 -1.51855 13.1144 19.4143 -20.5706 8.82781e-032 -1.59028e-015 3.18055e-015 18.527 -14.9498 53.7939 -4.1157 -0.00343689 -97.4897 8.31429 -3.45259 -9.29321 8.82781e-032 -1.59028e-015 3.18055e-015 -13.1812 -6.58165 -13.2556 13.046 -14.029 43.8956 -1.08499 -1.82673 9.86552 
-222.597 87.5102 -87.9341 0.87062 -1.09293 112.834 -4.6964 -6.79833 -2.49226 2.63173 22.5017 9.36573 7.34723 -3.44624 0.407131 -1.09115e-015 -5 -6.38541e-015 4.05112 -17.6464 8.86537 -1.37606 23.764 -2.86961 4.24247 5.17244 -0.273998 3.97569e-016 -5 -0 -6.59171 6.87917 -1.31247 12.9764 19.4358 -19.607 -1.59028e-015 -1.59028e-015 -0 18.0245 -13.6954 54.2418 -4.20957 -0.0870558 -99.1062 8.02834 -3.15915 -9.32703 -1.59028e-015 -1.59028e-015 -0 -13.4307 -6.36686 -13.7001 13.251 -13.5026 44.5724 -1.40877 -2.33171 9.8385 
-223.264 87.6257 -87.3572 0.680531 -1.09131 109.11 -4.48715 -6.75422 -1.37934 2.34031 21.4702 11.9732 7.45228 -2.9891 0.373595 -4.96962e-016 -5 -0 2.96019 -16.3392 8.48142 -1.05926 25.8642 -6.33714 2.25519 3.58603 -0.189859 1.31201e-015 -5 -3.1927e-015 -6.63255 6.45893 -0.957183 12.4358 19.5151 -18.2369 -4.77083e-015 1.59028e-015 3.18055e-015 17.5172 -12.637 54.7565 -4.15613 -0.0958611 -100.627 7.80117 -2.85582 -9.36351 -4.77083e-015 1.59028e-015 3.18055e-015 -13.6174 -6.30501 -13.0412 13.2165 -13.6519 43.9744 -1.40122 -3.06634 9.83079 
-223.948 87.6792 -86.7421 0.244383 -1.27124 105.615 -4.16039 -7.40545 -0.87072 2.11461 21.2295 14.8452 6.98782 -2.68571 0.325053 3.4389e-015 -5 6.38541e-015 1.58048 -15.3388 6.79649 -0.885901 27.1959 -8.56617 0.112012 2.70175 -0.158775 4.25396e-015 -5 3.1927e-015 -5.91065 5.7367 -0.748893 11.2714 19.6095 -16.739 -1.59028e-015 3.97569e-015 -0 16.3391 -11.9503 55.5766 -3.71067 -0.0476428 -102.219 7.66686 -2.72073 -9.38688 -1.59028e-015 3.97569e-015 -0 -14.2185 -6.80667 -14.645 13.5278 -12.6467 46.1168 -1.06085 -2.8551 9.85733 
-224.514 87.7718 -86.1017 0.0954937 -1.34221 102.624 -3.88478 -7.54344 -0.621048 2.06924 20.6986 17.5268 6.29336 -2.14193 0.257915 -5.16876e-016 -5 3.1927e-015 0.107783 -13.7465 4.82903 -0.938302 27.3753 -10.0276 -1.25084 1.69067 -0.167042 6.95656e-017 -5 7.98176e-016 -5.29396 5.44974 -0.656115 10.4951 19.6542 -15.2564 1.59028e-015 7.95139e-016 -1.59028e-015 15.6358 -11.678 56.9786 -2.74755 -0.0843186 -104.515 7.65012 -2.5996 -9.39381 1.59028e-015 7.95139e-016 -1.59028e-015 -14.2891 -6.89749 -13.5773 13.354 -13.1562 45.5318 -0.994665 -2.65405 9.86366 
-224.925 87.891 -85.3954 0.101493 -1.46878 99.8742 -3.41781 -7.42929 -0.228929 2.11063 20.1054 19.9314 5.54589 -1.57767 0.193737 8.74616e-016 -5 3.1927e-015 -0.895301 -11.8511 4.01489 -1.15424 26.4306 -11.4258 -3.18531 0.57841 -0.20369 2.65219e-016 -5 3.04305e-015 -4.58973 5.098 -0.559179 9.64688 19.9838 -13.7708 1.59028e-015 -7.35503e-015 -1.59028e-015 14.9141 -11.3321 58.5872 -1.45514 -0.122121 -106.886 7.8406 -2.87851 -9.35959 1.59028e-015 -7.35503e-015 -1.59028e-015 -14.5995 -7.36686 -13.525 13.649 -12.4838 46.0585 -1.18665 -2.53894 9.85131 
-225.345 87.9725 -84.5637 -0.417884 -1.50428 96.916 -2.82762 -7.96083 0.430624 1.86773 19.9692 22.1267 4.75936 -1.14541 0.142351 1.13296e-015 -5 9.57811e-015 -1.77318 -11.0335 4.19312 -1.43317 25.4121 -11.9731 -4.02417 0.151013 -0.230359 3.47828e-016 -5 3.99088e-015 -4.46639 3.96695 -0.27548 9.01936 20.8903 -12.6819 -2.38542e-015 -4.67144e-015 -0 14.3605 -10.8622 59.7466 -0.691632 -0.0660049 -108.456 8.27724 -3.46154 -9.29254 -2.38542e-015 -4.67144e-015 -0 -14.3701 -7.51428 -13.3846 13.7809 -12.018 46.7861 -1.06539 -2.309 9.86166 
-225.667 88.0486 -83.6166 -0.794078 -1.40913 94.1168 -2.19104 -8.09548 1.09362 1.67569 19.4988 24.1586 4.07613 -0.667557 0.0964058 7.95139e-016 -5 -0 -2.59587 -10.1642 3.86096 -1.84446 23.8525 -10.7231 -4.31867 0.146247 -0.235635 -4.49257e-015 -5 3.1927e-015 -4.17431 3.49192 0.00767939 8.11894 21.0827 -11.4367 7.95139e-016 2.18663e-015 -0 13.968 -10.729 61.4322 0.424701 -0.00330421 -110.306 8.58555 -4.68637 -9.17643 7.95139e-016 2.18663e-015 -0 -14.5857 -8.24126 -14.9874 14.21 -10.567 49.7573 -1.11143 -2.85364 9.85495 
-225.908 88.1174 -82.5446 -0.879502 -1.21489 92.4764 -1.57781 -8.09806 1.49811 1.73561 19.3437 25.087 3.96045 -0.306482 0.0753267 1.31201e-015 -5 -3.1927e-015 -3.37267 -8.78083 2.35507 -2.3335 21.6184 -9.61701 -3.93911 0.285513 -0.222849 -2.00767e-015 -5 -4.78906e-015 -4.45724 3.29814 -0.135248 7.84829 21.1985 -10.5193 -2.79318e-032 4.02539e-015 3.97569e-016 14.3018 -10.5627 63.2922 2.39668 -0.123414 -113.733 8.95698 -8.75309 -8.83021 -2.79318e-032 4.02539e-015 3.97569e-016 -14.1615 -8.61057 -15.6485 14.3945 -9.90179 50.8277 -0.795306 -2.93944 9.87685 
